<?xml version="1.0" encoding="UTF-8"?>
<svg id="Capa_1" data-name="Capa 1" xmlns="http://www.w3.org/2000/svg" width="135" height="55" viewBox="0 0 135 55">
  <path d="M105.07.15c.28,0,.57,0,.85.03.48.15.75.48.82.99.17.98.17,1.96,0,2.94-.35,2.14-.97,4.19-1.87,6.16-2.39,5.36-4.91,10.66-7.58,15.89-3.32,6.02-6.77,11.96-10.35,17.81-.87,1.69-1.73,3.39-2.57,5.09-.7-.35-1.26-.86-1.67-1.53-.13-.33-.16-.67-.11-1.02.24-1.04.63-2.02,1.19-2.94,4.04-6.95,8.17-13.85,12.38-20.7,2.84-5.03,5.36-10.21,7.58-15.55.62-1.53,1.11-3.09,1.47-4.69.04-.23.04-.45,0-.68-.09-.28-.28-.43-.57-.45-.37.07-.72.19-1.05.37-1.33.89-2.57,1.89-3.73,3-4.5,4.39-8.74,9-12.72,13.83,2.81.04,5.62.1,8.43.2.59.05,1.16.2,1.7.45.26.2.28.4.06.62-.3-.16-.62-.27-.96-.34-.75-.11-1.5-.17-2.26-.2-1.38.08-2.77.11-4.16.11-1.16-.02-2.32-.03-3.48-.03-1.89,2.26-3.69,4.59-5.4,6.98-.65.94-1.24,1.92-1.75,2.94-.08.2-.14.41-.17.62,0,.75,0,1.51-.03,2.26-.1.04-.19,0-.25-.11-.64-1.32-.64-2.64,0-3.96.53-1.16,1.13-2.27,1.81-3.34,1.99-3.05,4.16-5.97,6.5-8.77,3.33-3.99,6.92-7.75,10.77-11.28,1.64-1.47,3.39-2.79,5.26-3.96.6-.32,1.22-.58,1.87-.76Z" style="fill: #fff; fill-rule: evenodd; isolation: isolate; opacity: .98; stroke-width: 0px;"/>
  <path d="M31.39,2.64c1.27-.06,2.52.1,3.73.48,1.26.51,1.99,1.45,2.18,2.8.24,1.69.17,3.37-.23,5.03-.69,2.46-1.62,4.83-2.8,7.1.9-.05,1.81-.1,2.71-.14.57.01,1.13.05,1.7.11.09-.02.19-.04.28-.06.79-1.1,1.75-2.01,2.88-2.74.68-.46,1.12-.3,1.33.48.06.37.02.73-.11,1.07-.04.04-.09.06-.14.08-.26.02-.53.04-.79.06-.61.35-1.12.81-1.53,1.39.86.15,1.67.44,2.43.88.18.13.33.29.45.48-.75-.24-1.52-.46-2.32-.65-.34-.08-.68-.14-1.02-.17-1.77,1.95-3.45,3.98-5.03,6.08l.06.06c.85-.34,1.68-.73,2.49-1.16.73-.47,1.46-.92,2.21-1.36.54-.27,1.11-.35,1.7-.23.3.12.42.35.34.68-.07.48-.12.96-.14,1.44.14.06.28.05.42-.03.77-.37,1.52-.76,2.26-1.19.45-.8,1.05-1.46,1.81-1.98.53-.29,1.1-.41,1.7-.34.39.2.58.52.57.96-.02.16-.06.31-.11.45.24.14.51.2.79.2.33-.02.65-.08.96-.17.08.01.11.05.08.11-.61.35-1.25.42-1.92.23-.08.05-.17.09-.25.14-.13.29-.27.59-.42.88-.4.57-.86,1.09-1.39,1.56-.68.52-1.33.49-1.95-.08-.23-.44-.26-.89-.08-1.36-.02-.04-.04-.08-.06-.11-.83.59-1.7,1.13-2.6,1.61-.34.17-.7.23-1.07.17-.2-.1-.3-.26-.31-.48,0-.51,0-1.02,0-1.53,0-.18-.09-.32-.25-.4-1.84,1.14-3.71,2.24-5.6,3.31-.44.14-.75,0-.93-.42-.06-.3-.02-.58.11-.85,1.6-2.15,3.23-4.28,4.89-6.39-1.48-.18-2.95-.15-4.41.08-3.39,7.14-7.21,14.01-11.45,20.61-1.94,2.96-4.05,5.78-6.33,8.48-1.68,1.99-3.58,3.73-5.68,5.23-1.09.74-2.28,1.29-3.56,1.64-1.55.32-3.04.15-4.47-.51-1.51-.91-2.33-2.26-2.46-4.04-.1-1.7.1-3.36.62-4.98,1.08-3.19,2.58-6.15,4.52-8.88,4.74-6.68,10.8-11.78,18.18-15.3,2.3-1,4.68-1.79,7.13-2.35,1.18-2.34,2.25-4.74,3.19-7.18.62-1.57,1-3.19,1.16-4.86.03-1.22-.52-2.06-1.64-2.52-.82-.28-1.67-.4-2.54-.37-2.47.07-4.86.54-7.18,1.39-3.34,1.24-6.54,2.78-9.58,4.61-.04-.06-.04-.11,0-.17.26-.38.53-.75.79-1.13,4.54-2.65,9.4-4.49,14.56-5.51.72-.1,1.44-.19,2.15-.25ZM30.03,19.38s.05.02.06.06c-4.34,8.61-9.31,16.81-14.9,24.6-1.61,2.18-3.39,4.22-5.34,6.14-.81.76-1.71,1.38-2.71,1.87-1.09.39-2.2.48-3.34.28-1.24-.38-2.03-1.2-2.35-2.46-.24-1.05-.26-2.11-.06-3.17.35-1.99.97-3.9,1.87-5.71,3.51-6.89,8.52-12.44,15.01-16.65,3.64-2.32,7.56-3.97,11.76-4.95ZM47.34,22.72c.08.03.12.08.11.17-.05.17-.13.32-.25.45-.33.31-.67.62-1.02.9.11-.72.5-1.22,1.16-1.53Z" style="fill: #fff; fill-rule: evenodd; isolation: isolate; opacity: .98; stroke-width: 0px;"/>
  <path d="M123.28,19.72c.42,0,.83,0,1.24.03.23.06.36.21.4.45-.03.22-.12.42-.25.59-.34.35-.69.7-1.05,1.05-1.73,1.24-3.35,2.62-4.86,4.13,1.26-.58,2.58-1.01,3.96-1.3.63-.05,1.25-.03,1.87.06.41.12.59.4.54.82-.07.12-.17.17-.31.17-.35-.18-.73-.31-1.13-.37-1-.05-1.96.12-2.88.51l-2.38,1.02c-.76.13-.99-.16-.71-.88.39-.63.84-1.22,1.36-1.75.48-.46.98-.91,1.5-1.33,1.08-.83,2.16-1.68,3.22-2.54-.75.05-1.42.3-2.04.74-.1.34-.33.46-.68.34-.08-.03-.15-.07-.2-.14-.05-.2-.03-.38.06-.57.28-.24.59-.44.93-.59.47-.17.94-.31,1.41-.42Z" style="fill: #fff; fill-rule: evenodd; isolation: isolate; opacity: .96; stroke-width: 0px;"/>
  <path d="M70.92,20.28c.67-.13,1.1.13,1.27.79.21.58.19,1.14-.06,1.7-1.19,1.85-2.49,3.62-3.9,5.32-1.92,2.36-3.99,4.59-6.19,6.7-2.44,2.14-5.04,4.06-7.8,5.77-1.81,1.03-3.75,1.65-5.82,1.87-2.21.22-3.84-.64-4.89-2.57-.45-1.06-.48-2.13-.11-3.22.63-1.8,1.74-3.24,3.31-4.33,1.27-.9,2.66-1.54,4.18-1.92,3.42-.85,6.89-1.39,10.4-1.64,1.32-.09,2.64-.18,3.96-.25,1.57-1.98,3.07-4.02,4.5-6.11.47-.74.31-.88-.48-.42-1.83,1.35-3.67,2.67-5.54,3.96-.42.28-.87.47-1.36.59-.43-.11-.71-.37-.85-.79.15-.57.39-1.08.74-1.56-.62.35-1.26.67-1.92.96-.88.38-1.22.11-1.05-.82.25-.57.49-1.14.74-1.7-1.12.91-2.22,1.84-3.31,2.8-.34.03-.65-.05-.93-.25.02-.58.22-1.1.59-1.56-.44.23-.88.5-1.3.79-.65.43-1.36.72-2.12.88-.33-.03-.49-.22-.48-.57.04-.21.09-.42.14-.62.23-.5.46-.99.68-1.47-1.12.91-2.22,1.84-3.31,2.8-.34.03-.65-.05-.93-.25-.04-.21-.02-.42.06-.62.56-1.09,1.21-2.12,1.95-3.08.51-.27,1.01-.26,1.5.03.05.2,0,.39-.11.57-.27.4-.56.79-.88,1.16.02,0,.04.02.06.03.65-.51,1.33-.99,2.04-1.44.38-.21.77-.27,1.19-.17.34.21.43.5.25.88-.34.68-.74,1.32-1.19,1.92-.04.06-.03.12.03.17.37-.13.73-.29,1.07-.48.51-.35,1.04-.67,1.58-.96.37-.5.72-1.02,1.05-1.56.48-.36,1-.42,1.56-.2.07.06.12.12.17.2-.29.62-.66,1.17-1.13,1.67.64-.39,1.26-.82,1.87-1.3.4-.27.83-.4,1.3-.4.45.11.61.38.48.82-.31.67-.68,1.29-1.13,1.87-.05.09-.09.19-.14.28.03.02.06.04.08.06.7-.27,1.35-.62,1.95-1.05.69-.88,1.43-1.73,2.21-2.54.39-.29.82-.38,1.3-.28.33.14.65.29.96.45.1.06.12.15.08.25-.39.26-.73.58-1.02.96-.49.69-1,1.37-1.53,2.04-.07.11-.11.22-.11.34,1.56-1.18,3.11-2.36,4.67-3.53.53-.39,1.09-.7,1.7-.93ZM63.96,28.88c.32,0,.64,0,.96.03-1.21,1.59-2.55,3.08-4.01,4.47-2.35,2.22-4.82,4.3-7.41,6.22-.91.64-1.88,1.2-2.88,1.7-1.42.49-2.85.55-4.3.17-1.02-.44-1.65-1.2-1.89-2.29-.4-2.44.37-4.43,2.29-5.97,1.75-1.25,3.67-2.14,5.77-2.66,1.71-.44,3.45-.78,5.2-1.02,2.1-.27,4.19-.48,6.28-.65Z" style="fill: #fff; fill-rule: evenodd; isolation: isolate; opacity: .97; stroke-width: 0px;"/>
  <path d="M131.93,21.3c.41-.06.67.11.76.51.04.19.04.38,0,.57-1.11,1.48-2.12,3.04-3.03,4.67.63-.34,1.23-.73,1.81-1.19,1.11-.92,2.18-1.88,3.22-2.88.09-.03.19-.04.28-.03,0,.06,0,.12-.03.17-1.7,1.82-3.54,3.47-5.51,4.95-.4.28-.85.46-1.33.54-.13.01-.25-.03-.34-.11-.06-.39,0-.77.17-1.13.62-1.3,1.34-2.54,2.18-3.7-.02-.07-.06-.09-.11-.06-.94.82-1.93,1.56-3,2.21-.83.14-1.26-.21-1.3-1.05.15-1.19.68-2.18,1.58-2.97,1.39-.74,2.32-.35,2.77,1.16.63-.3,1.13-.75,1.5-1.36.11-.12.23-.21.37-.28ZM129.11,22.66c.4-.05.68.11.85.48-.7.56-1.41,1.08-2.15,1.58-.05.03-.11.04-.17.03.2-.91.69-1.61,1.47-2.09Z" style="fill: #fff; fill-rule: evenodd; isolation: isolate; opacity: .96; stroke-width: 0px;"/>
  <path d="M102.3,21.36c.5.02.93.2,1.3.54-.51.47-.88,1.03-1.1,1.67.53-.6,1.12-1.12,1.78-1.56.62-.35,1.12-.23,1.5.37.18,1.35-.34,2.34-1.56,2.97-.49.19-.98.19-1.47,0-.22-.23-.28-.51-.17-.82.16.19.34.22.57.08.48-.33.92-.69,1.33-1.1.19-.21.27-.46.23-.74-.07-.05-.14-.09-.23-.11-.75.32-1.39.79-1.92,1.41-1.63,1.85-3.03,3.87-4.18,6.05-.29.27-.6.29-.93.08-.4-.23-.56-.56-.48-.99.31-.47.59-.96.85-1.47,1.42-2.01,2.78-4.06,4.07-6.16.14-.08.28-.16.42-.23Z" style="fill: #fff; fill-rule: evenodd; isolation: isolate; opacity: .97; stroke-width: 0px;"/>
  <path d="M109.37,21.53c.5-.06.83.15.99.62.02.31.03.61.03.9.23.08.47.14.71.17.37-.07.73-.12,1.1-.14-.37.26-.78.4-1.24.42-.26-.03-.52-.09-.76-.17-.08.1-.17.17-.28.23-.4,1.03-1.05,1.87-1.95,2.52-.48.31-.97.33-1.47.06-.31-.26-.46-.59-.45-.99.03-.58.21-1.1.54-1.58.49-.75,1.12-1.34,1.89-1.78.3-.1.61-.19.9-.25ZM108.07,24.98c.16-.74.59-1.23,1.3-1.47,0,.19-.07.36-.2.51-.33.37-.69.69-1.1.96Z" style="fill: #fff; fill-rule: evenodd; isolation: isolate; opacity: .97; stroke-width: 0px;"/>
  <path d="M113.39,22.04c.35-.03.69.02,1.02.14.14.2.13.39-.03.59-.32.46-.63.89-.93,1.3.72-.55,1.45-1.06,2.21-1.56.38-.2.78-.24,1.19-.11.29.22.35.49.2.82-.38.72-.8,1.41-1.27,2.06.16.03.31.01.45-.06.79-.43,1.56-.88,2.32-1.36.11-.07.23-.08.34-.03-1.09.89-2.3,1.6-3.62,2.12-.68.19-.96-.07-.82-.76.19-.63.46-1.23.82-1.78-.02,0-.04-.02-.06-.03-1.12.86-2.19,1.78-3.22,2.74-.35.07-.67,0-.96-.2-.06-.05-.1-.12-.11-.2.19-.62.46-1.19.82-1.72.38-.57.75-1.13,1.13-1.7.16-.13.34-.23.54-.28Z" style="fill: #fff; fill-rule: evenodd; isolation: isolate; opacity: .96; stroke-width: 0px;"/>
  <path d="M122.21,26.17c.36-.01.72.01,1.07.08.27.12.42.34.42.65.1,1.12-.1,2.17-.62,3.17-.12.21-.29.36-.51.45-.12-.03-.18-.11-.2-.23.31-.92.47-1.86.48-2.83-.23-.44-.6-.6-1.1-.48-.81.17-1.6.4-2.38.71-.12,0-.19-.06-.23-.17.04-.18.13-.32.28-.42.87-.49,1.8-.8,2.77-.93Z" style="fill: #fff; fill-rule: evenodd; isolation: isolate; opacity: .95; stroke-width: 0px;"/>
  <path d="M101.23,27.01c.26.07.5.18.74.31,1.48.97,3.02,1.81,4.64,2.54,3.26,1.29,6.57,1.48,9.95.57,1.25-.41,2.44-.96,3.56-1.64.6-.38,1.21-.75,1.81-1.13.19-.06.3,0,.34.2-.2.55-.52,1.01-.96,1.39-1,.93-2.08,1.75-3.22,2.49-2.16,1.11-4.44,1.48-6.84,1.13-2.84-.61-5.44-1.74-7.8-3.39-.64-.51-1.28-1.02-1.92-1.53-.27-.21-.42-.49-.42-.82.06-.03.1-.07.14-.11Z" style="fill: #fff; fill-rule: evenodd; isolation: isolate; opacity: .98; stroke-width: 0px;"/>
</svg>