<?xml version="1.0" encoding="UTF-8"?>
<svg id="Capa_1" data-name="Capa 1" xmlns="http://www.w3.org/2000/svg" version="1.1" viewBox="0 0 128 128">
  <defs>
    <style>
      .cls-1, .cls-2 {
        fill: currentColor;
        fill-rule: evenodd;
        isolation: isolate;
        stroke-width: 0px;
      }
    </style>
  </defs>
  <path class="cls-1" d="M123,17.8c.6,0,1.1,0,1.7,0,1,.3,1.5,1,1.7,2,.3,2,.3,4,0,6-.7,4.3-2,8.5-3.8,12.5-4.8,10.9-10,21.6-15.4,32.2-6.7,12.2-13.7,24.3-21,36.1-1.8,3.4-3.5,6.9-5.2,10.3-1.4-.7-2.6-1.7-3.4-3.1-.3-.7-.3-1.4-.2-2.1.5-2.1,1.3-4.1,2.4-6,8.2-14.1,16.6-28.1,25.1-42,5.8-10.2,10.9-20.7,15.4-31.5,1.2-3.1,2.2-6.3,3-9.5,0-.5,0-.9,0-1.4-.2-.6-.6-.9-1.1-.9-.7.1-1.5.4-2.1.7-2.7,1.8-5.2,3.8-7.6,6.1-9.1,8.9-17.7,18.3-25.8,28,5.7,0,11.4.2,17.1.4,1.2,0,2.4.4,3.4.9.5.4.6.8.1,1.3-.6-.3-1.2-.5-1.9-.7-1.5-.2-3.1-.3-4.6-.4-2.8.2-5.6.2-8.4.2-2.4,0-4.7,0-7.1,0-3.8,4.6-7.5,9.3-11,14.2-1.3,1.9-2.5,3.9-3.6,6-.2.4-.3.8-.3,1.3,0,1.5,0,3.1,0,4.6-.2,0-.4,0-.5-.2-1.3-2.7-1.3-5.3,0-8,1.1-2.3,2.3-4.6,3.7-6.8,4-6.2,8.4-12.1,13.2-17.8,6.8-8.1,14-15.7,21.8-22.9,3.3-3,6.9-5.7,10.7-8,1.2-.7,2.5-1.2,3.8-1.5Z"/>
  <path class="cls-2" d="M79.8,42.3c1.8,0,4.1.3,6.7,1.3.8.3,1.5.7,2.1,1,.4.3.7.6.9,1-1.5-.5-3.1-.9-4.7-1.3-.7-.2-1.4-.3-2.1-.3M82.7,43.9c-2.3-.4-5.1-.7-8.2-.6-1.6,0-3,.2-4.3.4-6.9,14.5-14.6,28.4-23.2,41.8-3.9,6-8.2,11.7-12.8,17.2-3.4,4-7.3,7.6-11.5,10.6-2.2,1.5-4.6,2.6-7.2,3.3-3.1.6-6.2.3-9.1-1-3.1-1.9-4.7-4.6-5-8.2-.2-3.4.2-6.8,1.3-10.1,2.2-6.5,5.2-12.5,9.2-18,9.6-13.5,21.9-23.9,36.9-31,4.7-2,9.5-3.6,14.4-4.8,2.4-4.8,4.6-9.6,6.5-14.6,1.3-3.2,2-6.5,2.4-9.9,0-2.5-1.1-4.2-3.3-5.1-1.7-.6-3.4-.8-5.2-.7-5,.2-9.9,1.1-14.6,2.8-6.8,2.5-13.3,5.6-19.4,9.3,0-.1,0-.2,0-.3.5-.8,1.1-1.5,1.6-2.3,9.2-5.4,19.1-9.1,29.5-11.2,1.5-.2,2.9-.4,4.4-.5,2.6-.1,5.1.2,7.6,1,2.6,1,4,2.9,4.4,5.7.5,3.4.3,6.8-.5,10.2-1.4,5-3.3,9.8-5.7,14.4.8-.1,1.6-.2,2.5-.3,2.5-.2,4.6,0,6.5.2M62.2,45c0,0,.1,0,.1.1-8.8,17.5-18.9,34.1-30.2,49.9-3.3,4.4-6.9,8.6-10.8,12.4-1.6,1.5-3.5,2.8-5.5,3.8-2.2.8-4.5,1-6.8.6-2.5-.8-4.1-2.4-4.8-5-.5-2.1-.5-4.3-.1-6.4.7-4,2-7.9,3.8-11.6,7.1-14,17.3-25.2,30.4-33.8,7.4-4.7,15.3-8,23.9-10Z"/>
</svg>